<svg id="Layer_1" data-name="Layer 1" xmlns="http://www.w3.org/2000/svg" viewBox="0 0 222.87 171.49"><defs><style>.cls-1{fill:#e4e4e4;}.cls-2,.cls-3{fill:#f2f1f1;}.cls-3{stroke:#fff;stroke-miterlimit:10;stroke-width:3px;opacity:0.7;}.cls-4{fill:#fff;}.cls-5{fill:#b0b1b4;}.cls-6{fill:#103752;}.cls-7{fill:#4a4a49;}.cls-8{fill:#fffaf5;}.cls-9{fill:#2f343c;}.cls-10{fill:#8a8a8a;}</style></defs><title>empty-plate</title><circle class="cls-1" cx="115.33" cy="87.65" r="82.5"/><circle class="cls-2" cx="115.33" cy="80.77" r="73.01"/><circle class="cls-3" cx="115.33" cy="85.15" r="78"/><path class="cls-4" d="M164.22,24.38a59.83,59.83,0,1,1-97.78,0A78,78,0,1,0,164.22,24.38Z"/><circle class="cls-4" cx="115.33" cy="80.77" r="51.03"/><circle class="cls-1" cx="115.33" cy="80.77" r="49.75"/><circle class="cls-1" cx="115.38" cy="81.28" r="46.49" transform="translate(-13.41 23.56) rotate(-11.02)"/><path class="cls-2" d="M93.56,122.25s-10.09-7-11.56-14.58c-3.78-19.41,25-24.75,50.41-1.08,14.47,13.48,17.27-36.45,21.05-17A35.64,35.64,0,0,1,151,111.06,46.68,46.68,0,1,0,93.56,122.25Z"/><path class="cls-5" d="M219.29,1.55a1.56,1.56,0,0,0-2.82-.9c-3.06,4.28-7.67,12.05-8.68,21.09-1.14,10.23-1.5,39.88-1.69,47a4.51,4.51,0,0,0,4.51,4.63h0.2a8.94,8.94,0,0,0,8.94-9.05C219.57,51.18,219.37,11.39,219.29,1.55Z"/><path class="cls-5" d="M219.79,123.54c0,1.61-1.68,2.91-3.76,2.91h0c-2.08,0-3.76-1.3-3.76-2.91V69.63c0-1.61,1.68-42.05,3.76-42.05h0c2.07,0,3.76,40.45,3.76,42.05v53.91Z"/><path class="cls-6" d="M216.1,170.3h0a6.58,6.58,0,0,0,6.76-6.8l-0.69-70.39c0-4.32-3.05-3.32-6.07-3.53H216c-3,.2-6.07-0.79-6.07,3.53l-0.69,70.39a6.58,6.58,0,0,0,6.76,6.8h0.07Z"/><path class="cls-7" d="M218.31,95.72a2.14,2.14,0,0,1-2.14,2.14h0A2.14,2.14,0,0,1,214,95.72h0a2.14,2.14,0,0,1,2.14-2.14h0a2.14,2.14,0,0,1,2.14,2.14h0Z"/><path class="cls-8" d="M218.31,162.67a2.14,2.14,0,0,1-2.14,2.14h0a2.14,2.14,0,0,1-2.14-2.14h0a2.14,2.14,0,0,1,2.14-2.14h0a2.14,2.14,0,0,1,2.14,2.14h0Z"/><polygon class="cls-9" points="217.42 96.86 214.77 95.1 215.05 94.67 217.71 96.43 217.42 96.86 217.42 96.86"/><path class="cls-5" d="M5.68,50.11c-2.45,0-1.92-.23-2-0.58C3.46,46.7,3.24,36.81,3.24,36.81S3.3,24.07,3.14,20.7s-1.07-6.82-1.39-6.88S0.31,17.69.1,20.64C-0.19,36.8.19,53.13,0.81,56.9c0.14,0.86.29,1.72,0.41,2.59,0.54,4,2.72,13.42,11.22,13.44s10.68-9.42,11.22-13.44c0.12-.87.27-1.73,0.41-2.59,0.62-3.78,1-20.11.72-36.27-0.21-2.95-1.33-6.88-1.65-6.82s-1.23,3.44-1.39,6.88-0.1,16.11-.1,16.11-0.21,9.89-.48,12.72c0,0.35-.59.58-3,0.58H5.68Z"/><path class="cls-5" d="M3.06,50.12c1,0,3.73.12,3.73-.52,0-5.39.15-22.28,0.21-25.76a21,21,0,0,1,.21-3.37c0.87-6,1.36-6.62,1.51-6.65h0c0.15,0,.63.65,1.51,6.65a21,21,0,0,1,.21,3.37c0.06,3.48.21,20.37,0.21,25.76,0,0.64,2.74.52,3.73,0.52H10.65c1,0,3.73.12,3.73-.52,0-5.39.15-22.28,0.21-25.76a21,21,0,0,1,.21-3.37c0.87-6,1.36-6.62,1.51-6.65h0c0.15,0,.63.65,1.51,6.65a21,21,0,0,1,.21,3.37c0.06,3.48.21,20.37,0.21,25.76,0,0.64,2.74.52,3.73,0.52"/><path class="cls-10" d="M13.31,89.92h0Z"/><path class="cls-5" d="M16.2,125.83c0,1.61-1.68,2.91-3.76,2.91h0c-2.08,0-3.76-1.3-3.76-2.91V65.31c0-1.61,1.68-6.94,3.76-6.94h0c2.08,0,3.76,5.33,3.76,6.94v60.52Z"/><path class="cls-6" d="M12.48,171.49h0a6.58,6.58,0,0,0,6.76-6.8L18.56,95.4c0-4.32-3.05-3.32-6.07-3.52H12.41c-3,.2-6.07-0.79-6.07,3.52L5.65,164.69a6.58,6.58,0,0,0,6.76,6.8h0.07Z"/><path class="cls-7" d="M14.87,98a2.14,2.14,0,0,1-2.14,2.14h0A2.14,2.14,0,0,1,10.58,98h0a2.14,2.14,0,0,1,2.14-2.14h0A2.14,2.14,0,0,1,14.87,98h0Z"/><path class="cls-8" d="M14.87,163.86A2.14,2.14,0,0,1,12.72,166h0a2.14,2.14,0,0,1-2.14-2.14h0a2.14,2.14,0,0,1,2.14-2.14h0a2.14,2.14,0,0,1,2.14,2.14h0Z"/><polygon class="cls-9" points="11.61 96.96 14.26 98.72 13.97 99.15 11.32 97.39 11.61 96.96 11.61 96.96"/><path class="cls-10" d="M16.8,38.88h0Z"/><path class="cls-10" d="M16.8,38.88h0Z"/><path class="cls-10" d="M16.79,38.88h0Z"/><path class="cls-10" d="M16.81,38.88h0Z"/><path class="cls-10" d="M16.77,38.9h0Z"/><path class="cls-10" d="M8.84,38.88h0Z"/><path class="cls-10" d="M8.84,38.88h0Z"/><path class="cls-10" d="M8.83,38.88h0Z"/><path class="cls-10" d="M8.85,38.88h0Z"/><path class="cls-10" d="M8.81,38.9h0Z"/></svg>