<?xml version="1.0" encoding="utf-8"?>
<!-- Generator: Adobe Illustrator 18.1.0, SVG Export Plug-In . SVG Version: 6.00 Build 0)  -->
<svg version="1.1" id="Layer_1" xmlns="http://www.w3.org/2000/svg" xmlns:xlink="http://www.w3.org/1999/xlink" x="0px" y="0px"
	 viewBox="0 241 800 518" enable-background="new 0 241 800 518" xml:space="preserve">
<g id="Layer_1_1_">
	<rect x="-134.1" y="31" display="none" fill="#DDDDDD" width="4095.4" height="860.4"/>
	<g display="none">
		<g display="inline">
			<circle fill="#2F343C" cx="451.9" cy="392" r="52.7"/>
			<circle fill="#2F343C" cx="451.9" cy="442.8" r="59.8"/>
			<circle fill="#CACBCC" cx="451.9" cy="441.5" r="37.5"/>
			<circle fill="#444A50" cx="451.9" cy="441.5" r="24.9"/>
			<path fill="#2F343C" d="M267.6,184.2c-45.6,0-85.7,21.7-111.2,55.6l0,0l0,0c-3.2,4.2-5.8,8.4-8.4,12.9L80.5,353.9l15.5,4.5
				c28.1-43.6,76.9-72.7,132.8-72.7c86.9,0,157.4,70.5,157.4,157.4c0,0.3,0,0.6,0,1.3l14.5,4.2l5.2-113.8c0.3-3.9,0.6-7.8,0.6-12
				C406.6,246.6,344.6,184.2,267.6,184.2z"/>
			<g>
				<g>
					<path fill="#2F343C" d="M228.8,278.9c-95,0-172.3,77.3-172.3,172.3s77.3,172.3,172.3,172.3s172.3-77.3,172.3-172.3
						S323.9,278.9,228.8,278.9z M228.8,593.1c-78.2,0-141.6-63.7-141.6-141.9s63.4-141.6,141.6-141.6S370.4,373,370.4,451.2
						S307.1,593.1,228.8,593.1z"/>
					<path fill="#444A50" d="M227.9,271.2c-95.4,0-172.3,76.9-172.3,172.3s76.9,172.3,172.3,172.3c95,0,172.3-77.3,172.3-172.3
						S322.9,271.2,227.9,271.2z M227.9,584.4c-77.9,0-141.3-63-141.3-141.3s63-140.9,141.3-140.9c77.9,0,141.3,63,141.3,141.3
						C368.8,522.3,305.8,584.7,227.9,584.4z"/>
				</g>
				<path opacity="0.5" fill="#49B6A8" enable-background="new    " d="M227.9,586.3c-76.6,0-139-62.1-139-139s62.1-139,139-139
					c76.6,0,139,62.1,139,139C366.5,524.9,304.5,586.3,227.9,586.3z"/>
				<path fill="#FFFFFF" d="M231.4,338.1c62.4,5.5,111.8,58.2,113.5,120.9c0.6,22.9-5.2,44.3-15.2,62.7
					c16.2-22.3,25.2-50.4,23.6-80.8c-3.6-59.8-51.1-109.6-110.9-116c-32.3-3.2-62.7,5.8-86.6,23.3c-3.6,2.6-0.3,7.8,3.6,5.5
					C180.4,341.6,204.9,335.8,231.4,338.1z"/>
			</g>
			<path fill="#2F343C" d="M634.8,184.2c45.6,0,85.7,21.7,111.2,55.6l0,0l0,0c3.2,4.2,5.8,8.4,8.4,12.9L822,353.9l-15.5,4.5
				c-28.1-43.6-76.9-72.7-132.8-72.7c-86.9,0-157.4,70.5-157.4,157.4c0,0.3,0,0.6,0,1.3l-14.5,4.2l-5.2-113.8
				c-0.3-3.9-0.6-7.8-0.6-12C495.8,246.6,558.2,184.2,634.8,184.2z"/>
			<g>
				<g>
					<path fill="#2F343C" d="M675.9,278.9c-95,0-172.3,77.3-172.3,172.3s77.3,172.3,172.3,172.3s172.3-77.3,172.3-172.3
						S770.9,278.9,675.9,278.9z M675.9,593.1c-78.2,0-141.6-63.4-141.6-141.6s63.4-141.6,141.6-141.6s141.6,63.4,141.6,141.6
						S754.1,593.1,675.9,593.1z"/>
					<path fill="#444A50" d="M674.6,271.2c-95,0-172.3,77.3-172.3,172.3s77.3,172.3,172.3,172.3s172.3-77.3,172.3-172.3
						S769.9,271.2,674.6,271.2z M674.6,584.4c-77.9,0-141.3-63-141.3-141.3s63.4-140.9,141.3-140.9c77.9,0,141.3,63,141.3,141.3
						C815.8,522.3,752.8,584.7,674.6,584.4z"/>
				</g>
				<path opacity="0.5" fill="#49B6A8" enable-background="new    " d="M674.6,586.3c-76.6,0-139-62.1-139-139s62.1-139,139-139
					c76.6,0,139,62.1,139,139C813.6,524.9,751.5,586.3,674.6,586.3z"/>
				<path fill="#FFFFFF" d="M678.5,338.1c62.4,5.5,111.8,58.2,113.5,120.9c0.6,22.9-5.2,44.3-15.2,62.7
					c16.2-22.3,25.2-50.4,23.6-80.8c-3.6-59.8-51.1-109.6-110.9-116c-32.6-3.6-63,5.8-86.9,23.3c-3.6,2.6-0.3,7.8,3.6,5.5
					C627.1,341.6,652,335.8,678.5,338.1z"/>
			</g>
		</g>
	</g>
	<g display="none">
		<g display="inline">
			<path fill="#FFD700" d="M784.5,548.5c16.2,16.2,32.6,30.1,44.3,34.6c-11.6,4.2-29.1,13.9-45.9,30.7c-16.8,16.8-29.1,33.9-33,45.9
				c-4.5-11.6-16.5-28.1-32.3-44.3c-17.5-17.5-35.6-30.1-47.5-33.6c11.6-3.6,29.7-15.8,47.5-33.6c17.5-17.5,30.1-35.6,33.6-47.5
				C754.7,512.6,767,530.7,784.5,548.5z"/>
		</g>
		<g display="inline">
			<path fill="#0093C9" d="M675.2,583.7l-5.2-1.9C671.7,582.4,673.3,583.1,675.2,583.7z"/>
			<path fill="#FFC700" d="M717.6,599.6c16.2,9.4,27.8,12.6,32.3,19.4c10.3-8.4,16.2-10.3,33-20.4l45.9-15.8
				c-11.6,4.2-29.1,13.9-45.9,30.7c-16.8,16.8-29.1,33.9-33,45.9c-4.5-11.6-16.5-28.1-32.3-44.3c-15.2-15.2-30.7-26.5-42.3-31.7
				L717.6,599.6z"/>
		</g>
	</g>
	<g display="none">
		<g display="inline">
			<path fill="#FFD700" d="M578.3,637.7c8.1,8.1,16.2,14.9,22,17.1c-5.8,1.9-14.5,7.1-22.6,15.2s-14.2,16.8-16.5,22.6
				c-2.3-5.8-8.1-13.9-16.2-22c-8.7-8.7-17.8-14.9-23.6-16.5c5.8-1.6,14.9-8.1,23.6-16.5c8.7-8.7,14.9-17.8,16.5-23.6
				C563.4,619.9,569.5,629,578.3,637.7z"/>
		</g>
		<g display="inline">
			<path fill="#0093C9" d="M524,655.2l-2.6-1C522.3,654.5,523.3,654.8,524,655.2z"/>
			<path fill="#FFC700" d="M545,663.2c8.1,4.8,13.9,6.1,16.2,9.7c5.2-4.2,8.1-5.2,16.5-10l22.6-7.8c-5.8,1.9-14.5,7.1-22.6,15.2
				c-8.4,8.4-14.2,16.8-16.5,22.6c-2.3-5.8-8.1-13.9-16.2-22c-7.4-7.4-15.2-13.3-21-15.8L545,663.2z"/>
		</g>
	</g>
	
		<rect x="-560.8" y="-415.4" display="none" opacity="0.8" fill="#333333" enable-background="new    " width="4942.9" height="5346.6"/>
	<g>
		<g>
			<g>
				<circle fill="#2F343C" cx="400.2" cy="453.5" r="52.7"/>
				<circle fill="#2F343C" cx="400.2" cy="504.2" r="59.8"/>
				<circle fill="#CACBCC" cx="400.2" cy="502.9" r="37.5"/>
				<circle fill="#444A50" cx="400.2" cy="502.9" r="24.9"/>
				<path fill="#2F343C" d="M215.9,245.6c-45.6,0-85.7,21.7-111.2,55.6l0,0l0,0c-3.2,4.2-5.8,8.4-8.4,12.9L28.8,415.3l15.5,4.5
					c28.1-43.6,76.9-72.7,132.8-72.7c86.9,0,157.4,70.5,157.4,157.4c0,0.3,0,0.6,0,1.3l14.5,4.2l5.2-113.8c0.3-3.9,0.6-7.8,0.6-12
					C354.9,308,292.8,245.6,215.9,245.6z"/>
				<g>
					<g>
						<path fill="#2F343C" d="M177.1,340.3c-95,0-172.3,77.3-172.3,172.3s77.3,172.3,172.3,172.3s172.3-77.3,172.3-172.3
							S272.2,340.3,177.1,340.3z M177.1,654.5c-78.2,0-141.6-63.7-141.6-141.9S98.9,371,177.1,371s141.6,63.7,141.6,141.6
							S255.4,654.5,177.1,654.5z"/>
						<path fill="#444A50" d="M176.2,332.6c-95.4,0-172.3,76.9-172.3,172.3s76.9,172.3,172.3,172.3c95,0,172.3-77.3,172.3-172.3
							S271.2,332.6,176.2,332.6z M176.2,645.8c-77.9,0-141.3-63-141.3-141.3s63-140.9,141.3-140.9c77.9,0,141.3,63,141.3,141.3
							C317.1,583.7,254.1,646.1,176.2,645.8z"/>
					</g>
					<path opacity="0.5" fill="#49B6A8" enable-background="new    " d="M176.2,647.7c-76.6,0-139-62.1-139-139s62.1-139,139-139
						c76.6,0,139,62.1,139,139C314.8,586.3,252.8,647.7,176.2,647.7z"/>
					<path fill="#FFFFFF" d="M179.7,399.5c62.4,5.5,111.8,58.2,113.5,120.9c0.6,22.9-5.2,44.3-15.2,62.7
						c16.2-22.3,25.2-50.4,23.6-80.8c-3.6-59.8-51.1-109.6-110.9-116c-32.3-3.2-62.7,5.8-86.6,23.3c-3.6,2.6-0.3,7.8,3.6,5.5
						C128.6,403,153.2,397.2,179.7,399.5z"/>
				</g>
				<path fill="#2F343C" d="M583.1,245.6c45.6,0,85.7,21.7,111.2,55.6l0,0l0,0c3.2,4.2,5.8,8.4,8.4,12.9l67.6,101.2l-15.5,4.5
					c-28.1-43.6-76.9-72.7-132.8-72.7c-86.9,0-157.4,70.5-157.4,157.4c0,0.3,0,0.6,0,1.3l-14.5,4.2l-5.2-113.8
					c-0.3-3.9-0.6-7.8-0.6-12C444.1,308,506.5,245.6,583.1,245.6z"/>
				<g>
					<g>
						<path fill="#2F343C" d="M624.2,340.3c-95,0-172.3,77.3-172.3,172.3s77.3,172.3,172.3,172.3s172.3-77.3,172.3-172.3
							S719.2,340.3,624.2,340.3z M624.2,654.5c-78.2,0-141.6-63.4-141.6-141.6s63.4-141.6,141.6-141.6s141.6,63.4,141.6,141.6
							S702.4,654.5,624.2,654.5z"/>
						<path fill="#444A50" d="M622.9,332.6c-95,0-172.3,77.3-172.3,172.3s77.3,172.3,172.3,172.3s172.3-77.3,172.3-172.3
							S718.2,332.6,622.9,332.6z M622.9,645.8c-77.9,0-141.3-63-141.3-141.3S545,363.6,622.9,363.6c77.9,0,141.3,63,141.3,141.3
							C764.1,583.7,701.1,646.1,622.9,645.8z"/>
					</g>
					<path opacity="0.5" fill="#49B6A8" enable-background="new    " d="M622.9,647.7c-76.6,0-139-62.1-139-139s62.1-139,139-139
						c76.6,0,139,62.1,139,139C761.9,586.3,699.8,647.7,622.9,647.7z"/>
					<path fill="#FFFFFF" d="M626.7,399.5c62.4,5.5,111.8,58.2,113.5,120.9c0.6,22.9-5.2,44.3-15.2,62.7
						c16.2-22.3,25.2-50.4,23.6-80.8c-3.6-59.8-51.1-109.6-110.9-116c-32.6-3.6-63,5.8-86.9,23.3c-3.6,2.6-0.3,7.8,3.6,5.5
						C575.4,403,600.2,397.2,626.7,399.5z"/>
				</g>
			</g>
		</g>
		<g>
			<g>
				<path fill="#FFD700" d="M732.8,609.9c16.2,16.2,32.6,30.1,44.3,34.6c-11.6,4.2-29.1,13.9-45.9,30.7
					c-16.8,16.8-29.1,33.9-33,45.9c-4.5-11.6-16.5-28.1-32.3-44.3c-17.5-17.5-35.6-30.1-47.5-33.6c11.6-3.6,29.7-15.8,47.5-33.6
					c17.5-17.5,30.1-35.6,33.6-47.5C703,574,715.3,592.1,732.8,609.9z"/>
			</g>
			<g>
				<path fill="#0093C9" d="M623.5,645.1l-5.2-1.9C620,643.8,621.6,644.5,623.5,645.1z"/>
				<path fill="#FFC700" d="M665.9,661c16.2,9.4,27.8,12.6,32.3,19.4c10.3-8.4,16.2-10.3,33-20.4l45.9-15.8
					c-11.6,4.2-29.1,13.9-45.9,30.7c-16.8,16.8-29.1,33.9-33,45.9c-4.5-11.6-16.5-28.1-32.3-44.3c-15.2-15.2-30.7-26.5-42.3-31.7
					L665.9,661z"/>
			</g>
		</g>
		<g>
			<g>
				<path fill="#FFD700" d="M526.5,699.1c8.1,8.1,16.2,14.9,22,17.1c-5.8,1.9-14.5,7.1-22.6,15.2s-14.2,16.8-16.5,22.6
					c-2.3-5.8-8.1-13.9-16.2-22c-8.7-8.7-17.8-14.9-23.6-16.5c5.8-1.6,14.9-8.1,23.6-16.5c8.7-8.7,14.9-17.8,16.5-23.6
					C511.7,681.3,517.8,690.4,526.5,699.1z"/>
			</g>
			<g>
				<path fill="#0093C9" d="M472.2,716.6l-2.6-1C470.6,715.9,471.6,716.2,472.2,716.6z"/>
				<path fill="#FFC700" d="M493.3,724.6c8.1,4.8,13.9,6.1,16.2,9.7c5.2-4.2,8.1-5.2,16.5-10l22.6-7.8c-5.8,1.9-14.5,7.1-22.6,15.2
					c-8.4,8.4-14.2,16.8-16.5,22.6c-2.3-5.8-8.1-13.9-16.2-22c-7.4-7.4-15.2-13.3-21-15.8L493.3,724.6z"/>
			</g>
		</g>
	</g>
</g>
<g id="Layer_2" display="none">
</g>
<g id="Layer_4">
</g>
<g id="anotations" display="none">
</g>
</svg>
